<svg xmlns="http://www.w3.org/2000/svg" width="1412" height="250"><defs><linearGradient id="a" x1="50%" x2="27.525%" y1="50%" y2="28.457%"><stop offset="0%" stop-color="#FF6CD9"/><stop offset="100%" stop-color="#FFA8E6"/></linearGradient><linearGradient id="b" x1="0%" x2="230.368%" y1="100%" y2="-133.891%"><stop offset="0%" stop-color="#FF567C"/><stop offset="100%" stop-color="#60F"/></linearGradient><linearGradient id="c" x1="17.98%" x2="69.891%" y1="15.664%" y2="65.095%"><stop offset="0%" stop-color="#FF42B1"/><stop offset="100%" stop-color="#FF88DF"/></linearGradient><linearGradient id="d" x1="50%" x2="5.857%" y1="50%" y2="5.01%"><stop offset="0%" stop-color="#FF48BA"/><stop offset="100%" stop-color="#FFD7F4" stop-opacity=".536"/></linearGradient></defs><g fill="none" fill-rule="evenodd"><path fill="url(#a)" d="M140.48 0H250v250H0V138.66z"/><path fill="url(#b)" d="M250 0v250H0l125-125z"/><path fill="url(#c)" d="M250 250 64.636 186.508l4.898-115.966 116.056-6.013z" style="mix-blend-mode:screen"/><path fill="url(#d)" d="m64.636 186.508 4.898-115.966 116.056-6.013z" style="mix-blend-mode:screen"/><path fill="#FFF" d="M385 37v.067l2.937-.061c.276-.004.567-.006.858-.006 33.59 0 60.82 27.199 60.82 60.749 0 23.295-13.244 44.22-33.755 54.418l-1.907.948 34.291 59.328-36.959-.224-31.052-53.721h-38.31v53.784h-31.898v-85.648h33.898l44.872.007.478-.003c15.753-.256 28.445-13.091 28.445-28.889l-.004-.478c-.253-15.578-12.847-28.158-28.44-28.41l-.294-.005H310V37h75Z"/><path fill="#FF70E4" d="M1026.564 36c49.012 0 88.744 39.686 88.744 88.641 0 48.955-39.732 88.642-88.744 88.642h-52.846V36Zm.211 33.856h-19.16v109.57h18.767l1.09-.007c29.871-.484 53.938-24.823 53.938-54.778l-.007-.906c-.48-29.537-24.362-53.392-53.932-53.871l-.696-.008Z"/><path fill="#FFF" d="M709.026 37c28.634 0 51.846 23.185 51.846 51.785 0 8.413-2.01 16.534-5.805 23.834l-.895 1.72 1.693.948c16.26 9.098 26.545 26.254 26.545 45.211l-.007.856c-.458 28.205-23.49 50.929-51.839 50.929h-87.743v-103.57h66.205c11.017 0 19.948-8.922 19.948-19.928 0-11.007-8.931-19.928-19.948-19.928l-66.205-.001V37h66.205Zm21.538 141.426c9.913 0 17.949-8.026 17.949-17.928 0-9.902-8.036-17.928-17.949-17.928l-53.846-.001v35.857h53.846Z"/><path fill="#FF70E4" d="M1245.538 107.713v33.856h-71.436v37.857h71.436v33.856h-105.333V107.713h105.333Zm0-71.713v33.856h-105.333V36h105.333Z"/><path fill="#FFF" d="m814.212 36 45.628 65.09.982.882L906.93 36h41.38l-70.925 101.173V214h-33.897v-77.209L772.83 36h41.382Z"/><path fill="#FF70E4" d="m1310.22 36 30.967 54.312L1372.155 36h39.15l-50.543 88.641 50.542 88.641h-39.149l-30.967-54.31-30.968 54.31h-39.15l50.543-88.641L1271.07 36h39.15Z"/><path fill="#FFF" d="M508.23 37v105.57c0 20.908 16.969 37.856 37.898 37.856l.627-.005c20.64-.334 37.27-17.152 37.27-37.851V37h31.898v105.57c0 38.5-31.248 69.713-69.795 69.713l-1.154-.01c-38.015-.615-68.64-31.587-68.64-69.703V37h31.896Z"/></g></svg>